<svg width="1065" height="64" xmlns="http://www.w3.org/2000/svg" preserveAspectRatio="xMidYMid meet" version="1.0">

 <g>
  <title>Layer 1</title>
  <g id="svg_1" fill="#000000" transform="translate(0 64) scale(0.1 -0.1)">
   <path id="svg_2" d="m1977,523c-4,-3 -7,-33 -7,-66l0,-60l-46,6c-25,2 -61,1 -78,-4c-50,-14 -61,-45 -61,-170c0,-94 3,-111 21,-136c16,-22 31,-29 64,-31c23,-2 56,2 73,8c21,7 34,7 41,0c5,-5 18,-10 28,-10c17,0 18,15 18,235l0,235l-23,0c-13,0 -27,-3 -30,-7zm-38,-169l31,-6l0,-114l0,-113l-40,-11c-47,-13 -75,-7 -84,17c-12,30 -19,130 -12,167c11,60 35,74 105,60z"/>
   <path id="svg_3" d="m4510,310c0,-211 0,-211 25,-235c28,-29 53,-32 62,-9c3,9 -3,21 -16,30c-20,15 -21,22 -21,220l0,204l-25,0l-25,0l0,-210z"/>
   <path id="svg_4" d="m30,284l0,-226l124,3c114,4 127,6 149,27c37,35 50,96 45,219c-7,179 -32,203 -213,203l-105,0l0,-226zm208,175c44,-15 54,-51 55,-183c0,-159 -5,-166 -118,-166l-85,0l0,173c0,96 3,177 7,180c10,11 107,8 141,-4z"/>
   <path id="svg_5" d="m442,483c2,-22 8,-28 28,-28c20,0 26,6 28,28c3,24 0,27 -28,27c-28,0 -31,-3 -28,-27z"/>
   <path id="svg_6" d="m2220,485c0,-24 2,-25 70,-25l70,0l0,-200l0,-200l25,0l25,0l0,200l0,200l70,0c68,0 70,1 70,25l0,25l-165,0l-165,0l0,-25z"/>
   <path id="svg_7" d="m3672,483c2,-22 8,-28 28,-28c20,0 26,6 28,28c3,24 0,27 -28,27c-28,0 -31,-3 -28,-27z"/>
   <path id="svg_8" d="m2626,400c-22,-4 -47,-17 -57,-28c-21,-27 -32,-138 -20,-216c13,-91 57,-116 176,-99c45,6 61,12 63,26c3,15 -6,17 -76,17c-92,0 -112,13 -112,73l0,37l105,0l105,0l0,50c0,59 -20,114 -47,128c-28,15 -94,21 -137,12zm113,-54c6,-7 12,-31 14,-52l2,-39l-77,-3l-78,-3l0,40c0,23 7,46 16,55c20,20 107,22 123,2z"/>
   <path id="svg_9" d="m447,393c-4,-3 -7,-80 -7,-170l0,-163l30,0l30,0l0,170l0,170l-23,0c-13,0 -27,-3 -30,-7z"/>
   <path id="svg_10" d="m604,376c-21,-17 -28,-33 -28,-59c0,-46 25,-73 94,-104c65,-29 90,-50 90,-74c0,-28 -36,-41 -103,-37c-56,3 -62,1 -62,-17c0,-18 7,-20 86,-20c106,0 129,14 129,80c0,50 -22,74 -95,105c-60,26 -85,47 -85,71c0,29 37,42 102,36c56,-5 58,-4 58,19c0,23 -2,24 -79,24c-70,0 -83,-3 -107,-24z"/>
   <path id="svg_11" d="m934,390c-34,-13 -48,-64 -48,-171c0,-113 13,-142 72,-160c54,-16 165,-1 170,24c3,15 -6,17 -72,17c-106,0 -116,11 -116,130c0,79 3,93 21,111c20,20 29,21 96,15c73,-6 74,-5 71,17c-3,21 -8,22 -88,24c-47,1 -94,-2 -106,-7z"/>
   <path id="svg_12" d="m1233,376c-28,-24 -28,-25 -28,-146c0,-120 0,-122 27,-145c36,-31 105,-41 160,-24c60,19 78,58 78,167c0,97 -17,148 -55,162c-15,6 -55,10 -90,10c-53,0 -69,-4 -92,-24zm156,-25c31,-20 35,-217 5,-242c-20,-17 -104,-13 -123,6c-21,21 -23,203 -2,228c15,19 95,23 120,8z"/>
   <path id="svg_13" d="m1560,230l0,-170l25,0l25,0l0,135l0,134l38,10c20,6 45,11 55,11c11,0 17,8 17,25c0,28 -14,31 -70,15c-22,-6 -38,-6 -44,0c-6,6 -18,10 -28,10c-17,0 -18,-13 -18,-170z"/>
   <path id="svg_14" d="m2890,230l0,-170l30,0l30,0l0,135l0,134l43,12c23,6 48,13 55,15c6,2 12,13 12,24c0,24 -26,26 -82,6c-31,-11 -38,-11 -42,0c-3,8 -15,14 -26,14c-19,0 -20,-6 -20,-170z"/>
   <path id="svg_15" d="m3130,230l0,-170l25,0l25,0l0,135l0,134l38,11c20,7 53,10 72,8l35,-3l3,-142l3,-143l24,0l25,0l0,135l0,135l27,11c15,5 47,9 72,7l46,-3l3,-142l3,-143l24,0l25,0l0,150c0,137 -2,152 -20,170c-22,22 -77,26 -145,10c-27,-6 -50,-6 -73,2c-24,9 -48,9 -100,0c-42,-7 -68,-8 -70,-2c-2,6 -12,10 -23,10c-18,0 -19,-9 -19,-170z"/>
   <path id="svg_16" d="m3677,394c-4,-4 -7,-81 -7,-171l0,-163l30,0l30,0l-2,168c-3,159 -4,167 -23,170c-12,2 -24,0 -28,-4z"/>
   <path id="svg_17" d="m3820,230l0,-170l30,0l30,0l0,135l0,135l26,10c41,16 111,12 118,-6c3,-9 6,-74 6,-145l0,-129l25,0l25,0l0,150c0,137 -2,152 -20,170c-24,24 -94,27 -152,6c-31,-11 -38,-11 -42,0c-3,8 -15,14 -26,14c-19,0 -20,-6 -20,-170z"/>
   <path id="svg_18" d="m4191,391c-8,-5 -11,-16 -8,-25c6,-14 17,-16 70,-10c87,9 107,-3 107,-61l0,-45l-65,0c-69,0 -118,-17 -129,-45c-3,-9 -6,-35 -6,-57c0,-30 7,-46 29,-69c34,-33 47,-35 121,-13c38,11 55,13 58,5c2,-6 12,-11 23,-11c18,0 19,9 19,150c0,189 -1,190 -122,190c-46,0 -89,-4 -97,-9zm169,-219c0,-43 -15,-55 -84,-68c-46,-8 -66,8 -66,52c0,42 19,53 93,54l57,0l0,-38z"/>
   <path id="svg_19" d="m2663,-37c1468,-2 3866,-2 5330,0c1464,1 264,2 -2668,2c-2931,0 -4129,-1 -2662,-2z"/>
  </g>
 </g>
</svg>